<svg width="83" height="36" viewBox="0 0 83 36" fill="none" xmlns="http://www.w3.org/2000/svg">
<circle cx="18" cy="18" r="18" fill="#00882D"/>
<path d="M4.736 26V9.2H11.984C13.856 9.2 15.304 9.576 16.328 10.328C17.368 11.08 17.888 12.144 17.888 13.52C17.888 14.432 17.672 15.2 17.24 15.824C16.824 16.448 16.248 16.92 15.512 17.24C14.792 17.56 14 17.72 13.136 17.72L13.544 17.144C14.616 17.144 15.536 17.312 16.304 17.648C17.088 17.968 17.696 18.456 18.128 19.112C18.56 19.752 18.776 20.552 18.776 21.512C18.776 22.936 18.248 24.04 17.192 24.824C16.152 25.608 14.576 26 12.464 26H4.736ZM6.512 24.536H12.44C13.912 24.536 15.04 24.288 15.824 23.792C16.608 23.28 17 22.472 17 21.368C17 20.28 16.608 19.488 15.824 18.992C15.04 18.48 13.912 18.224 12.44 18.224H6.32V16.76H11.864C13.208 16.76 14.248 16.504 14.984 15.992C15.736 15.48 16.112 14.72 16.112 13.712C16.112 12.688 15.736 11.928 14.984 11.432C14.248 10.92 13.208 10.664 11.864 10.664H6.512V24.536ZM27.8218 26.12C26.5098 26.12 25.3578 25.848 24.3658 25.304C23.3738 24.744 22.5978 23.984 22.0378 23.024C21.4778 22.048 21.1978 20.936 21.1978 19.688C21.1978 18.44 21.4618 17.336 21.9898 16.376C22.5338 15.416 23.2698 14.664 24.1978 14.12C25.1418 13.56 26.1978 13.28 27.3658 13.28C28.5498 13.28 29.5978 13.552 30.5098 14.096C31.4378 14.624 32.1658 15.376 32.6938 16.352C33.2218 17.312 33.4858 18.424 33.4858 19.688C33.4858 19.768 33.4778 19.856 33.4618 19.952C33.4618 20.032 33.4618 20.12 33.4618 20.216H22.4938V18.944H32.5498L31.8778 19.448C31.8778 18.536 31.6778 17.728 31.2778 17.024C30.8938 16.304 30.3658 15.744 29.6938 15.344C29.0218 14.944 28.2458 14.744 27.3658 14.744C26.5018 14.744 25.7258 14.944 25.0378 15.344C24.3498 15.744 23.8138 16.304 23.4298 17.024C23.0458 17.744 22.8538 18.568 22.8538 19.496V19.76C22.8538 20.72 23.0618 21.568 23.4778 22.304C23.9098 23.024 24.5018 23.592 25.2538 24.008C26.0218 24.408 26.8938 24.608 27.8698 24.608C28.6378 24.608 29.3498 24.472 30.0058 24.2C30.6778 23.928 31.2538 23.512 31.7338 22.952L32.6938 24.056C32.1338 24.728 31.4298 25.24 30.5818 25.592C29.7498 25.944 28.8298 26.12 27.8218 26.12Z" fill="#F1F1F1"/>
<path d="M43.3861 13.28C44.4101 13.28 45.3061 13.48 46.0741 13.88C46.8581 14.264 47.4661 14.856 47.8981 15.656C48.3461 16.456 48.5701 17.464 48.5701 18.68V26H46.8661V18.848C46.8661 17.52 46.5301 16.52 45.8581 15.848C45.2021 15.16 44.2741 14.816 43.0741 14.816C42.1781 14.816 41.3941 15 40.7221 15.368C40.0661 15.72 39.5541 16.24 39.1861 16.928C38.8341 17.6 38.6581 18.416 38.6581 19.376V26H36.9541V13.4H38.5861V16.856L38.3221 16.208C38.7221 15.296 39.3621 14.584 40.2421 14.072C41.1221 13.544 42.1701 13.28 43.3861 13.28ZM58.3089 26.12C57.0929 26.12 55.9969 25.848 55.0209 25.304C54.0609 24.744 53.3009 23.984 52.7409 23.024C52.1809 22.048 51.9009 20.936 51.9009 19.688C51.9009 18.424 52.1809 17.312 52.7409 16.352C53.3009 15.392 54.0609 14.64 55.0209 14.096C55.9809 13.552 57.0769 13.28 58.3089 13.28C59.5569 13.28 60.6609 13.552 61.6209 14.096C62.5969 14.64 63.3569 15.392 63.9009 16.352C64.4609 17.312 64.7409 18.424 64.7409 19.688C64.7409 20.936 64.4609 22.048 63.9009 23.024C63.3569 23.984 62.5969 24.744 61.6209 25.304C60.6449 25.848 59.5409 26.12 58.3089 26.12ZM58.3089 24.608C59.2209 24.608 60.0289 24.408 60.7329 24.008C61.4369 23.592 61.9889 23.016 62.3889 22.28C62.8049 21.528 63.0129 20.664 63.0129 19.688C63.0129 18.696 62.8049 17.832 62.3889 17.096C61.9889 16.36 61.4369 15.792 60.7329 15.392C60.0289 14.976 59.2289 14.768 58.3329 14.768C57.4369 14.768 56.6369 14.976 55.9329 15.392C55.2289 15.792 54.6689 16.36 54.2529 17.096C53.8369 17.832 53.6289 18.696 53.6289 19.688C53.6289 20.664 53.8369 21.528 54.2529 22.28C54.6689 23.016 55.2289 23.592 55.9329 24.008C56.6369 24.408 57.4289 24.608 58.3089 24.608ZM68.2198 26V13.4H69.9238V26H68.2198ZM65.7237 11.432L68.2438 8.456H69.9238L72.4438 11.432H70.9078L68.5078 8.888H69.6598L67.2598 11.432H65.7237ZM78.6491 26.12C77.4651 26.12 76.5531 25.8 75.9131 25.16C75.2731 24.52 74.9531 23.616 74.9531 22.448V10.616H76.6571V22.352C76.6571 23.088 76.8411 23.656 77.2091 24.056C77.5931 24.456 78.1371 24.656 78.8411 24.656C79.5931 24.656 80.2171 24.44 80.7131 24.008L81.3131 25.232C80.9771 25.536 80.5691 25.76 80.0891 25.904C79.6251 26.048 79.1451 26.12 78.6491 26.12ZM72.6971 14.816V13.4H80.4971V14.816H72.6971Z" fill="#262526"/>
</svg>
