<svg width="60" height="60" viewBox="0 0 60 60" fill="none" xmlns="http://www.w3.org/2000/svg">
<path d="M27.1875 8.4375V4.6875C27.1875 3.94158 27.4838 3.22621 28.0113 2.69876C28.5387 2.17132 29.2541 1.875 30 1.875C30.7459 1.875 31.4613 2.17132 31.9887 2.69876C32.5162 3.22621 32.8125 3.94158 32.8125 4.6875V8.4375C32.8125 9.18342 32.5162 9.89879 31.9887 10.4262C31.4613 10.9537 30.7459 11.25 30 11.25C29.2541 11.25 28.5387 10.9537 28.0113 10.4262C27.4838 9.89879 27.1875 9.18342 27.1875 8.4375ZM45.9375 30C45.9375 33.1521 45.0028 36.2335 43.2515 38.8544C41.5003 41.4753 39.0112 43.5181 36.099 44.7243C33.1868 45.9306 29.9823 46.2462 26.8907 45.6313C23.7992 45.0163 20.9594 43.4984 18.7305 41.2695C16.5016 39.0406 14.9837 36.2008 14.3687 33.1093C13.7538 30.0177 14.0694 26.8132 15.2757 23.901C16.4819 20.9888 18.5247 18.4997 21.1456 16.7485C23.7665 14.9972 26.8479 14.0625 30 14.0625C34.2256 14.0668 38.2768 15.7474 41.2647 18.7353C44.2526 21.7232 45.9332 25.7744 45.9375 30ZM40.3125 30C40.3125 27.9604 39.7077 25.9666 38.5745 24.2707C37.4414 22.5748 35.8308 21.253 33.9464 20.4725C32.0621 19.692 29.9886 19.4877 27.9881 19.8857C25.9877 20.2836 24.1502 21.2657 22.708 22.708C21.2657 24.1502 20.2836 25.9877 19.8857 27.9881C19.4877 29.9886 19.692 32.0621 20.4725 33.9464C21.253 35.8308 22.5748 37.4414 24.2707 38.5745C25.9666 39.7077 27.9604 40.3125 30 40.3125C32.7341 40.3094 35.3553 39.2219 37.2886 37.2886C39.2219 35.3553 40.3094 32.7341 40.3125 30ZM12.0727 16.0523C12.3343 16.314 12.6449 16.5215 12.9867 16.6631C13.3285 16.8047 13.6949 16.8775 14.0648 16.8775C14.4348 16.8775 14.8012 16.8047 15.143 16.6631C15.4848 16.5215 15.7954 16.314 16.057 16.0523C16.3186 15.7907 16.5262 15.4801 16.6678 15.1383C16.8093 14.7965 16.8822 14.4301 16.8822 14.0602C16.8822 13.6902 16.8093 13.3238 16.6678 12.982C16.5262 12.6402 16.3186 12.3296 16.057 12.068L13.2445 9.25547C12.7162 8.72711 11.9996 8.43028 11.2523 8.43028C10.5051 8.43028 9.78852 8.72711 9.26016 9.25547C8.73179 9.78383 8.43497 10.5004 8.43497 11.2477C8.43497 11.9949 8.73179 12.7115 9.26016 13.2398L12.0727 16.0523ZM12.0727 43.943L9.26016 46.7555C8.99854 47.0171 8.79101 47.3277 8.64942 47.6695C8.50784 48.0113 8.43497 48.3777 8.43497 48.7477C8.43497 49.1176 8.50784 49.484 8.64942 49.8258C8.79101 50.1676 8.99854 50.4782 9.26016 50.7398C9.78852 51.2682 10.5051 51.565 11.2523 51.565C11.6223 51.565 11.9887 51.4922 12.3305 51.3506C12.6723 51.209 12.9829 51.0015 13.2445 50.7398L16.057 47.9273C16.5854 47.399 16.8822 46.6824 16.8822 45.9352C16.8822 45.1879 16.5854 44.4713 16.057 43.943C15.5287 43.4146 14.8121 43.1178 14.0648 43.1178C13.3176 43.1178 12.601 43.4146 12.0727 43.943ZM45.9375 16.875C46.307 16.8753 46.6728 16.8028 47.0143 16.6616C47.3557 16.5205 47.666 16.3134 47.9273 16.0523L50.7398 13.2398C51.0015 12.9782 51.209 12.6676 51.3506 12.3258C51.4922 11.984 51.565 11.6176 51.565 11.2477C51.565 10.8777 51.4922 10.5113 51.3506 10.1695C51.209 9.82767 51.0015 9.51709 50.7398 9.25547C50.4782 8.99385 50.1676 8.78632 49.8258 8.64474C49.484 8.50315 49.1176 8.43028 48.7477 8.43028C48.3777 8.43028 48.0113 8.50315 47.6695 8.64474C47.3277 8.78632 47.0171 8.99385 46.7555 9.25547L43.943 12.068C43.5473 12.4613 43.2775 12.9635 43.1681 13.5106C43.0586 14.0577 43.1143 14.625 43.3281 15.1404C43.5419 15.6557 43.9042 16.0958 44.3689 16.4047C44.8335 16.7136 45.3796 16.8773 45.9375 16.875ZM47.9273 43.9477C47.399 43.4193 46.6824 43.1225 45.9352 43.1225C45.1879 43.1225 44.4713 43.4193 43.943 43.9477C43.4146 44.476 43.1178 45.1926 43.1178 45.9398C43.1178 46.6871 43.4146 47.4037 43.943 47.932L46.7555 50.7445C47.2838 51.2729 48.0004 51.5697 48.7477 51.5697C49.4949 51.5697 50.2115 51.2729 50.7398 50.7445C51.2682 50.2162 51.565 49.4996 51.565 48.7523C51.565 48.0051 51.2682 47.2885 50.7398 46.7602L47.9273 43.9477ZM11.25 30C11.25 29.2541 10.9537 28.5387 10.4262 28.0113C9.89879 27.4838 9.18342 27.1875 8.4375 27.1875H4.6875C3.94158 27.1875 3.22621 27.4838 2.69876 28.0113C2.17132 28.5387 1.875 29.2541 1.875 30C1.875 30.7459 2.17132 31.4613 2.69876 31.9887C3.22621 32.5162 3.94158 32.8125 4.6875 32.8125H8.4375C9.18342 32.8125 9.89879 32.5162 10.4262 31.9887C10.9537 31.4613 11.25 30.7459 11.25 30ZM30 48.75C29.2541 48.75 28.5387 49.0463 28.0113 49.5738C27.4838 50.1012 27.1875 50.8166 27.1875 51.5625V55.3125C27.1875 56.0584 27.4838 56.7738 28.0113 57.3012C28.5387 57.8287 29.2541 58.125 30 58.125C30.7459 58.125 31.4613 57.8287 31.9887 57.3012C32.5162 56.7738 32.8125 56.0584 32.8125 55.3125V51.5625C32.8125 50.8166 32.5162 50.1012 31.9887 49.5738C31.4613 49.0463 30.7459 48.75 30 48.75ZM55.3125 27.1875H51.5625C50.8166 27.1875 50.1012 27.4838 49.5738 28.0113C49.0463 28.5387 48.75 29.2541 48.75 30C48.75 30.7459 49.0463 31.4613 49.5738 31.9887C50.1012 32.5162 50.8166 32.8125 51.5625 32.8125H55.3125C56.0584 32.8125 56.7738 32.5162 57.3012 31.9887C57.8287 31.4613 58.125 30.7459 58.125 30C58.125 29.2541 57.8287 28.5387 57.3012 28.0113C56.7738 27.4838 56.0584 27.1875 55.3125 27.1875Z" fill="#262526"/>
</svg>
