<svg width="55" height="55" viewBox="0 0 55 55" fill="none" xmlns="http://www.w3.org/2000/svg">
<path d="M15.8632 35.4338C17.6992 36.9763 20.0331 37.6647 22.321 38.0051C21.9125 38.6014 21.5831 39.3798 21.4128 40.3415C20.7718 40.5852 19.8217 40.8494 18.8291 40.7632C17.7298 40.6679 16.5401 40.1422 15.6289 38.5517C15.6285 38.5509 15.628 38.5502 15.6276 38.5495L15.6248 38.5445L15.611 38.5205C15.5993 38.5005 15.5827 38.4729 15.5613 38.4385C15.5186 38.3699 15.4562 38.2743 15.3744 38.1602C15.2114 37.9328 14.9686 37.6286 14.6473 37.3182C14.0082 36.7008 13.0268 36.03 11.7223 35.9386L11.71 35.9378L11.6976 35.9375L11.6874 36.4374C11.6976 35.9375 11.6975 35.9375 11.6973 35.9375L11.6969 35.9375L11.696 35.9375L11.6935 35.9374L11.6862 35.9374L11.6624 35.9372C11.6426 35.9373 11.6151 35.9375 11.5817 35.9384C11.5153 35.9402 11.4231 35.9445 11.319 35.955C11.1309 35.9739 10.8283 36.0192 10.5834 36.1544C10.456 36.2248 10.2953 36.3463 10.2047 36.5492C10.1068 36.7687 10.1287 36.9967 10.2118 37.193C10.2894 37.3765 10.424 37.5454 10.5861 37.7034C10.7519 37.8651 10.9701 38.038 11.2455 38.2256L11.2772 38.2472L11.3077 38.2617L11.3085 38.2621L11.3087 38.2622L11.31 38.2629L11.3119 38.2639C11.3174 38.2668 11.3281 38.2726 11.3437 38.2815C11.3749 38.2995 11.4254 38.3302 11.4915 38.376C11.6237 38.4676 11.8189 38.6197 12.048 38.8515C12.5032 39.3118 13.0989 40.0927 13.5999 41.3502C13.6038 41.3622 13.6093 41.3783 13.6164 41.3982C13.6305 41.4381 13.6513 41.4933 13.6795 41.5613C13.7359 41.697 13.8225 41.8844 13.9471 42.1025C14.1959 42.5378 14.5995 43.1009 15.2209 43.6169C16.405 44.6002 18.3127 45.3569 21.2708 44.8576V48.1249C21.2708 48.3487 21.2031 48.5339 21.0928 48.6429C21.0027 48.7319 20.8093 48.8441 20.3762 48.7829C11.4965 45.789 5.08325 37.3919 5.08325 27.4999C5.08325 21.5546 7.445 15.8529 11.6489 11.6489C13.7305 9.56736 16.2017 7.91616 18.9214 6.78962C21.6411 5.66308 24.5561 5.08325 27.4999 5.08325C30.4437 5.08325 33.3587 5.66308 36.0784 6.78962C38.7981 7.91616 41.2693 9.56736 43.3509 11.6489C45.4325 13.7305 47.0837 16.2017 48.2102 18.9214C49.3368 21.6411 49.9166 24.5561 49.9166 27.4999C49.9166 37.3932 43.5244 45.7688 34.642 48.7843C34.1967 48.8554 34.0005 48.741 33.9099 48.6515C33.7974 48.5403 33.7291 48.3499 33.7291 48.1249V41.8457C33.7291 40.1598 33.2794 38.868 32.6518 37.9805C34.9434 37.6419 37.2807 36.9634 39.1205 35.4324C41.2405 33.6684 42.6207 30.8416 42.6207 26.3541C42.6207 23.8006 41.7806 21.7143 40.3322 20.0346C40.6459 19.0964 41.1683 16.7868 39.9942 13.905L39.9062 13.689L39.6842 13.6177L39.5312 14.0937C39.6842 13.6177 39.6837 13.6175 39.6832 13.6173L39.6822 13.617L39.68 13.6163L39.6751 13.6148L39.6631 13.6113C39.6541 13.6087 39.6432 13.6057 39.6303 13.6025C39.6045 13.596 39.571 13.5885 39.5295 13.5809C39.4465 13.5658 39.3322 13.5507 39.1857 13.5437C38.8924 13.5298 38.4726 13.5488 37.9193 13.6644C36.8452 13.8888 35.272 14.4762 33.1404 15.8889C31.3449 15.4121 29.4101 15.1749 27.4999 15.1749C25.5898 15.1749 23.6549 15.4121 21.8594 15.8889C19.7278 14.4762 18.1546 13.8888 17.0806 13.6644C16.5272 13.5488 16.1075 13.5298 15.8141 13.5437C15.6676 13.5507 15.5533 13.5658 15.4703 13.5809C15.4289 13.5885 15.3953 13.596 15.3695 13.6025C15.3567 13.6057 15.3457 13.6087 15.3368 13.6113L15.3248 13.6148L15.3198 13.6163L15.3177 13.617L15.3166 13.6173C15.3161 13.6175 15.3157 13.6177 15.4687 14.0937L15.3157 13.6177L15.0936 13.689L15.0056 13.905C13.8316 16.7868 14.354 19.0964 14.6676 20.0346C13.2192 21.7143 12.3791 23.8006 12.3791 26.3541C12.3791 30.8298 13.7533 33.6613 15.8632 35.4338Z" fill="#F1F1F1" stroke="#262526"/>
</svg>
