<svg width="55" height="55" viewBox="0 0 55 55" fill="none" xmlns="http://www.w3.org/2000/svg">
<path d="M42.3958 42.8958H42.8958V42.3958V30.25C42.8958 28.136 42.0561 26.1086 40.5612 24.6138C39.0664 23.1189 37.039 22.2792 34.925 22.2792C33.2635 22.2792 31.4071 23.0665 30.1083 24.3435V23.2146V22.7146H29.6083H23.2146H22.7146V23.2146V42.3958V42.8958H23.2146H29.6083H30.1083V42.3958V31.0979C30.1083 29.6048 31.31 28.3896 32.7938 28.3896C33.512 28.3896 34.2009 28.6749 34.7088 29.1828C35.2167 29.6907 35.5021 30.3796 35.5021 31.0979V42.3958V42.8958H36.0021H42.3958ZM18.9521 42.8958H19.4521V42.3958V23.2146V22.7146H18.9521H12.6042H12.1042V23.2146V42.3958V42.8958H12.6042H18.9521ZM43.5417 7.375C44.6246 7.375 45.6632 7.80521 46.429 8.57098C47.1948 9.33675 47.625 10.3754 47.625 11.4583V43.5417C47.625 44.6246 47.1948 45.6632 46.429 46.429C45.6632 47.1948 44.6246 47.625 43.5417 47.625H11.4583C10.3754 47.625 9.33675 47.1948 8.57098 46.429C7.80521 45.6632 7.375 44.6246 7.375 43.5417V11.4583C7.375 10.3754 7.80521 9.33675 8.57098 8.57098C9.33675 7.80521 10.3754 7.375 11.4583 7.375H43.5417ZM15.7667 20.1167C16.9204 20.1167 18.0268 19.6584 18.8426 18.8426C19.6584 18.0268 20.1167 16.9204 20.1167 15.7667C20.1167 13.3631 18.1779 11.3938 15.7667 11.3938C14.6069 11.3938 13.4946 11.8545 12.6745 12.6745C11.8545 13.4946 11.3938 14.6069 11.3938 15.7667C11.3938 18.1779 13.3631 20.1167 15.7667 20.1167Z" fill="#F9F9F9" stroke="black"/>
</svg>
